<mxfile host="Electron" modified="2025-02-11T09:18:20.077Z" agent="Mozilla/5.0 (Windows NT 10.0; Win64; x64) AppleWebKit/537.36 (KHTML, like Gecko) draw.io/21.7.5 Chrome/114.0.5735.289 Electron/25.8.1 Safari/537.36" etag="Mnwbzyv837vE_5Ipxylp" version="21.7.5" type="device">
  <diagram name="PÃ¡gina-1" id="7um-xkAuZjVdnwqf9yHD">
    <mxGraphModel dx="701" dy="1516" grid="1" gridSize="10" guides="1" tooltips="1" connect="1" arrows="1" fold="1" page="1" pageScale="1" pageWidth="1169" pageHeight="827" math="0" shadow="0">
      <root>
        <mxCell id="0" />
        <mxCell id="1" parent="0" />
        <mxCell id="js5TKH550Lxxzj0phKs0-1" value="Servidor" style="swimlane;fontStyle=1;align=center;verticalAlign=top;childLayout=stackLayout;horizontal=1;startSize=26;horizontalStack=0;resizeParent=1;resizeParentMax=0;resizeLast=0;collapsible=1;marginBottom=0;whiteSpace=wrap;html=1;" parent="1" vertex="1">
          <mxGeometry x="10" y="100" width="160" height="56" as="geometry">
            <mxRectangle x="10" y="100" width="90" height="30" as="alternateBounds" />
          </mxGeometry>
        </mxCell>
        <mxCell id="LyKV8jFjZct6RxHrsgfV-53" value="+ generarMensaje():String" style="text;html=1;align=center;verticalAlign=middle;resizable=0;points=[];autosize=1;strokeColor=none;fillColor=none;" vertex="1" parent="js5TKH550Lxxzj0phKs0-1">
          <mxGeometry y="26" width="160" height="30" as="geometry" />
        </mxCell>
        <mxCell id="js5TKH550Lxxzj0phKs0-6" value="PC" style="swimlane;fontStyle=1;align=center;verticalAlign=top;childLayout=stackLayout;horizontal=1;startSize=26;horizontalStack=0;resizeParent=1;resizeParentMax=0;resizeLast=0;collapsible=1;marginBottom=0;whiteSpace=wrap;html=1;" parent="1" vertex="1">
          <mxGeometry x="440" y="100" width="160" height="56" as="geometry" />
        </mxCell>
        <mxCell id="LyKV8jFjZct6RxHrsgfV-54" value="+ generarMensaje():String" style="text;html=1;align=center;verticalAlign=middle;resizable=0;points=[];autosize=1;strokeColor=none;fillColor=none;" vertex="1" parent="js5TKH550Lxxzj0phKs0-6">
          <mxGeometry y="26" width="160" height="30" as="geometry" />
        </mxCell>
        <mxCell id="js5TKH550Lxxzj0phKs0-11" value="Impresora" style="swimlane;fontStyle=1;align=center;verticalAlign=top;childLayout=stackLayout;horizontal=1;startSize=26;horizontalStack=0;resizeParent=1;resizeParentMax=0;resizeLast=0;collapsible=1;marginBottom=0;whiteSpace=wrap;html=1;" parent="1" vertex="1">
          <mxGeometry x="790" y="99" width="160" height="52" as="geometry" />
        </mxCell>
        <mxCell id="js5TKH550Lxxzj0phKs0-16" value="Averia" style="swimlane;fontStyle=1;align=center;verticalAlign=top;childLayout=stackLayout;horizontal=1;startSize=26;horizontalStack=0;resizeParent=1;resizeParentMax=0;resizeLast=0;collapsible=1;marginBottom=0;whiteSpace=wrap;html=1;" parent="1" vertex="1">
          <mxGeometry x="790" y="324" width="160" height="78" as="geometry" />
        </mxCell>
        <mxCell id="js5TKH550Lxxzj0phKs0-17" value="- probabilidad: boolean" style="text;strokeColor=none;fillColor=none;align=left;verticalAlign=top;spacingLeft=4;spacingRight=4;overflow=hidden;rotatable=0;points=[[0,0.5],[1,0.5]];portConstraint=eastwest;whiteSpace=wrap;html=1;" parent="js5TKH550Lxxzj0phKs0-16" vertex="1">
          <mxGeometry y="26" width="160" height="26" as="geometry" />
        </mxCell>
        <mxCell id="LyKV8jFjZct6RxHrsgfV-27" value="- tiempo: Time" style="text;strokeColor=none;fillColor=none;align=left;verticalAlign=top;spacingLeft=4;spacingRight=4;overflow=hidden;rotatable=0;points=[[0,0.5],[1,0.5]];portConstraint=eastwest;whiteSpace=wrap;html=1;" vertex="1" parent="js5TKH550Lxxzj0phKs0-16">
          <mxGeometry y="52" width="160" height="26" as="geometry" />
        </mxCell>
        <mxCell id="js5TKH550Lxxzj0phKs0-21" value="Hub" style="swimlane;fontStyle=1;align=center;verticalAlign=top;childLayout=stackLayout;horizontal=1;startSize=26;horizontalStack=0;resizeParent=1;resizeParentMax=0;resizeLast=0;collapsible=1;marginBottom=0;whiteSpace=wrap;html=1;" parent="1" vertex="1">
          <mxGeometry x="190" y="352" width="180" height="52" as="geometry" />
        </mxCell>
        <mxCell id="LyKV8jFjZct6RxHrsgfV-35" value="- probabPerderMensaje: double" style="text;strokeColor=none;fillColor=none;align=left;verticalAlign=top;spacingLeft=4;spacingRight=4;overflow=hidden;rotatable=0;points=[[0,0.5],[1,0.5]];portConstraint=eastwest;whiteSpace=wrap;html=1;" vertex="1" parent="js5TKH550Lxxzj0phKs0-21">
          <mxGeometry y="26" width="180" height="26" as="geometry" />
        </mxCell>
        <mxCell id="LyKV8jFjZct6RxHrsgfV-1" value="" style="endArrow=none;html=1;rounded=0;entryX=0.45;entryY=1.038;entryDx=0;entryDy=0;entryPerimeter=0;exitX=0.25;exitY=0;exitDx=0;exitDy=0;" edge="1" parent="1" source="js5TKH550Lxxzj0phKs0-21">
          <mxGeometry width="50" height="50" relative="1" as="geometry">
            <mxPoint x="390" y="410" as="sourcePoint" />
            <mxPoint x="82" y="152.98800000000006" as="targetPoint" />
          </mxGeometry>
        </mxCell>
        <mxCell id="LyKV8jFjZct6RxHrsgfV-2" value="connecta" style="text;html=1;strokeColor=none;fillColor=none;align=center;verticalAlign=middle;whiteSpace=wrap;rounded=0;" vertex="1" parent="1">
          <mxGeometry x="430" y="240" width="60" height="30" as="geometry" />
        </mxCell>
        <mxCell id="LyKV8jFjZct6RxHrsgfV-3" value="*" style="text;html=1;align=center;verticalAlign=middle;resizable=0;points=[];autosize=1;strokeColor=none;fillColor=none;" vertex="1" parent="1">
          <mxGeometry x="60" y="152" width="30" height="30" as="geometry" />
        </mxCell>
        <mxCell id="LyKV8jFjZct6RxHrsgfV-4" value="1..*" style="text;html=1;align=center;verticalAlign=middle;resizable=0;points=[];autosize=1;strokeColor=none;fillColor=none;" vertex="1" parent="1">
          <mxGeometry x="180" y="330" width="40" height="30" as="geometry" />
        </mxCell>
        <mxCell id="LyKV8jFjZct6RxHrsgfV-5" value="" style="endArrow=none;html=1;rounded=0;exitX=0.75;exitY=0;exitDx=0;exitDy=0;entryX=0.45;entryY=1.115;entryDx=0;entryDy=0;entryPerimeter=0;" edge="1" parent="1" source="js5TKH550Lxxzj0phKs0-21">
          <mxGeometry width="50" height="50" relative="1" as="geometry">
            <mxPoint x="280" y="410" as="sourcePoint" />
            <mxPoint x="512" y="154.99" as="targetPoint" />
          </mxGeometry>
        </mxCell>
        <mxCell id="LyKV8jFjZct6RxHrsgfV-6" value="connecta" style="text;html=1;strokeColor=none;fillColor=none;align=center;verticalAlign=middle;whiteSpace=wrap;rounded=0;" vertex="1" parent="1">
          <mxGeometry x="100" y="240" width="60" height="30" as="geometry" />
        </mxCell>
        <mxCell id="LyKV8jFjZct6RxHrsgfV-7" value="*" style="text;html=1;align=center;verticalAlign=middle;resizable=0;points=[];autosize=1;strokeColor=none;fillColor=none;" vertex="1" parent="1">
          <mxGeometry x="500" y="152" width="30" height="30" as="geometry" />
        </mxCell>
        <mxCell id="LyKV8jFjZct6RxHrsgfV-8" value="1" style="text;html=1;align=center;verticalAlign=middle;resizable=0;points=[];autosize=1;strokeColor=none;fillColor=none;" vertex="1" parent="1">
          <mxGeometry x="340" y="324" width="30" height="30" as="geometry" />
        </mxCell>
        <mxCell id="LyKV8jFjZct6RxHrsgfV-21" value="Puerto" style="swimlane;fontStyle=1;align=center;verticalAlign=top;childLayout=stackLayout;horizontal=1;startSize=26;horizontalStack=0;resizeParent=1;resizeParentMax=0;resizeLast=0;collapsible=1;marginBottom=0;whiteSpace=wrap;html=1;" vertex="1" parent="1">
          <mxGeometry x="530" y="354" width="210" height="52" as="geometry" />
        </mxCell>
        <mxCell id="LyKV8jFjZct6RxHrsgfV-22" value="- connectarConOtroHub:boolean" style="text;strokeColor=none;fillColor=none;align=left;verticalAlign=top;spacingLeft=4;spacingRight=4;overflow=hidden;rotatable=0;points=[[0,0.5],[1,0.5]];portConstraint=eastwest;whiteSpace=wrap;html=1;" vertex="1" parent="LyKV8jFjZct6RxHrsgfV-21">
          <mxGeometry y="26" width="210" height="26" as="geometry" />
        </mxCell>
        <mxCell id="LyKV8jFjZct6RxHrsgfV-24" value="" style="endArrow=diamondThin;endFill=1;endSize=24;html=1;rounded=0;entryX=1.002;entryY=0.064;entryDx=0;entryDy=0;entryPerimeter=0;exitX=-0.006;exitY=0.032;exitDx=0;exitDy=0;exitPerimeter=0;" edge="1" parent="1" source="LyKV8jFjZct6RxHrsgfV-22">
          <mxGeometry width="160" relative="1" as="geometry">
            <mxPoint x="380" y="380" as="sourcePoint" />
            <mxPoint x="370.3600000000001" y="379.664" as="targetPoint" />
          </mxGeometry>
        </mxCell>
        <mxCell id="LyKV8jFjZct6RxHrsgfV-25" value="1" style="text;align=center;fontStyle=1;verticalAlign=middle;spacingLeft=3;spacingRight=3;strokeColor=none;rotatable=0;points=[[0,0.5],[1,0.5]];portConstraint=eastwest;html=1;" vertex="1" parent="1">
          <mxGeometry x="340" y="350" width="80" height="26" as="geometry" />
        </mxCell>
        <mxCell id="LyKV8jFjZct6RxHrsgfV-26" value="1..*" style="text;align=center;fontStyle=1;verticalAlign=middle;spacingLeft=3;spacingRight=3;strokeColor=none;rotatable=0;points=[[0,0.5],[1,0.5]];portConstraint=eastwest;html=1;" vertex="1" parent="1">
          <mxGeometry x="475" y="352" width="80" height="26" as="geometry" />
        </mxCell>
        <mxCell id="LyKV8jFjZct6RxHrsgfV-30" value="" style="endArrow=diamondThin;endFill=1;endSize=24;html=1;rounded=0;entryX=0.5;entryY=1;entryDx=0;entryDy=0;" edge="1" parent="1" source="js5TKH550Lxxzj0phKs0-16" target="js5TKH550Lxxzj0phKs0-11">
          <mxGeometry width="160" relative="1" as="geometry">
            <mxPoint x="240" y="380" as="sourcePoint" />
            <mxPoint x="400" y="380" as="targetPoint" />
          </mxGeometry>
        </mxCell>
        <mxCell id="LyKV8jFjZct6RxHrsgfV-31" value="1" style="text;html=1;align=center;verticalAlign=middle;resizable=0;points=[];autosize=1;strokeColor=none;fillColor=none;" vertex="1" parent="1">
          <mxGeometry x="880" y="151" width="30" height="30" as="geometry" />
        </mxCell>
        <mxCell id="LyKV8jFjZct6RxHrsgfV-32" value="*" style="text;html=1;align=center;verticalAlign=middle;resizable=0;points=[];autosize=1;strokeColor=none;fillColor=none;" vertex="1" parent="1">
          <mxGeometry x="870" y="300" width="30" height="30" as="geometry" />
        </mxCell>
        <mxCell id="LyKV8jFjZct6RxHrsgfV-37" value="&lt;b&gt;Cable&lt;/b&gt;" style="swimlane;fontStyle=0;childLayout=stackLayout;horizontal=1;startSize=26;fillColor=none;horizontalStack=0;resizeParent=1;resizeParentMax=0;resizeLast=0;collapsible=1;marginBottom=0;whiteSpace=wrap;html=1;" vertex="1" parent="1">
          <mxGeometry x="230" y="450" width="140" height="52" as="geometry" />
        </mxCell>
        <mxCell id="LyKV8jFjZct6RxHrsgfV-41" value="ElementoActivo" style="swimlane;fontStyle=0;childLayout=stackLayout;horizontal=1;startSize=26;fillColor=none;horizontalStack=0;resizeParent=1;resizeParentMax=0;resizeLast=0;collapsible=1;marginBottom=0;whiteSpace=wrap;html=1;" vertex="1" parent="1">
          <mxGeometry x="220" y="-170" width="140" height="52" as="geometry" />
        </mxCell>
        <mxCell id="LyKV8jFjZct6RxHrsgfV-45" value="" style="endArrow=block;endSize=16;endFill=0;html=1;rounded=0;exitX=0.5;exitY=0;exitDx=0;exitDy=0;" edge="1" parent="1" source="js5TKH550Lxxzj0phKs0-1">
          <mxGeometry width="160" relative="1" as="geometry">
            <mxPoint x="280" y="80" as="sourcePoint" />
            <mxPoint x="290" y="-120" as="targetPoint" />
          </mxGeometry>
        </mxCell>
        <mxCell id="LyKV8jFjZct6RxHrsgfV-46" value="" style="endArrow=block;endSize=16;endFill=0;html=1;rounded=0;exitX=0.507;exitY=-0.093;exitDx=0;exitDy=0;entryX=0.5;entryY=1;entryDx=0;entryDy=0;exitPerimeter=0;" edge="1" parent="1" source="js5TKH550Lxxzj0phKs0-6" target="LyKV8jFjZct6RxHrsgfV-41">
          <mxGeometry width="160" relative="1" as="geometry">
            <mxPoint x="100" y="110" as="sourcePoint" />
            <mxPoint x="300" y="-100" as="targetPoint" />
          </mxGeometry>
        </mxCell>
        <mxCell id="LyKV8jFjZct6RxHrsgfV-48" value="" style="endArrow=block;endSize=16;endFill=0;html=1;rounded=0;entryX=0.75;entryY=0;entryDx=0;entryDy=0;exitX=0.489;exitY=1.038;exitDx=0;exitDy=0;exitPerimeter=0;" edge="1" parent="1" source="LyKV8jFjZct6RxHrsgfV-35" target="LyKV8jFjZct6RxHrsgfV-49">
          <mxGeometry width="160" relative="1" as="geometry">
            <mxPoint x="280" y="430" as="sourcePoint" />
            <mxPoint x="440" y="330" as="targetPoint" />
          </mxGeometry>
        </mxCell>
        <mxCell id="LyKV8jFjZct6RxHrsgfV-49" value="ElementoPasivo" style="swimlane;fontStyle=0;childLayout=stackLayout;horizontal=1;startSize=26;fillColor=none;horizontalStack=0;resizeParent=1;resizeParentMax=0;resizeLast=0;collapsible=1;marginBottom=0;whiteSpace=wrap;html=1;" vertex="1" parent="1">
          <mxGeometry y="450" width="140" height="52" as="geometry" />
        </mxCell>
        <mxCell id="LyKV8jFjZct6RxHrsgfV-50" value="" style="endArrow=block;endSize=16;endFill=0;html=1;rounded=0;entryX=1;entryY=0.5;entryDx=0;entryDy=0;exitX=0;exitY=0.5;exitDx=0;exitDy=0;" edge="1" parent="1" source="LyKV8jFjZct6RxHrsgfV-37" target="LyKV8jFjZct6RxHrsgfV-49">
          <mxGeometry width="160" relative="1" as="geometry">
            <mxPoint x="190" y="391" as="sourcePoint" />
            <mxPoint x="290" y="530" as="targetPoint" />
          </mxGeometry>
        </mxCell>
        <mxCell id="LyKV8jFjZct6RxHrsgfV-52" value="" style="endArrow=block;endSize=16;endFill=0;html=1;rounded=0;exitX=0.5;exitY=0;exitDx=0;exitDy=0;entryX=1;entryY=0.5;entryDx=0;entryDy=0;" edge="1" parent="1" source="js5TKH550Lxxzj0phKs0-11" target="LyKV8jFjZct6RxHrsgfV-41">
          <mxGeometry width="160" relative="1" as="geometry">
            <mxPoint x="531" y="105" as="sourcePoint" />
            <mxPoint x="300" y="-108" as="targetPoint" />
          </mxGeometry>
        </mxCell>
      </root>
    </mxGraphModel>
  </diagram>
</mxfile>
